<svg xmlns="http://www.w3.org/2000/svg" viewBox="0 0 64 64" width="64" height="64" role="img" aria-label="freundcloud"><defs><linearGradient id="cloudg" x1="14" y1="18" x2="50" y2="46" gradientUnits="userSpaceOnUse"><stop offset="0" stop-color="#00ff88"/><stop offset="1" stop-color="#00b860"/></linearGradient><filter id="glow" x="-40%" y="-40%" width="180%" height="180%"><feGaussianBlur stdDeviation="1.1" result="b"/><feMerge><feMergeNode in="b"/><feMergeNode in="SourceGraphic"/></feMerge></filter></defs><rect width="64" height="64" rx="13" fill="#000000"/><g transform="translate(6.40 6.40) scale(0.8)"><g filter="url(#glow)"><g fill="url(#cloudg)"><rect x="12" y="36.5" width="40" height="9.5" rx="4.75"/><circle cx="20" cy="38" r="9"/><circle cx="30.5" cy="30.5" r="12"/><circle cx="44" cy="37" r="10"/><circle cx="40" cy="28" r="8"/></g><g fill="none" stroke="#04140a" stroke-linecap="round" stroke-linejoin="round"><g stroke-width="2.5"><line x1="30.50" y1="33.00" x2="30.50" y2="23.00"/><line x1="30.50" y1="33.00" x2="39.16" y2="28.00"/><line x1="30.50" y1="33.00" x2="39.16" y2="38.00"/><line x1="30.50" y1="33.00" x2="30.50" y2="43.00"/><line x1="30.50" y1="33.00" x2="21.84" y2="38.00"/><line x1="30.50" y1="33.00" x2="21.84" y2="28.00"/></g><g stroke-width="1.7"><line x1="30.50" y1="27.20" x2="33.21" y2="25.50"/><line x1="30.50" y1="27.20" x2="27.79" y2="25.50"/><line x1="35.52" y1="30.10" x2="38.35" y2="31.60"/><line x1="35.52" y1="30.10" x2="35.63" y2="26.90"/><line x1="35.52" y1="35.90" x2="35.63" y2="39.10"/><line x1="35.52" y1="35.90" x2="38.35" y2="34.40"/><line x1="30.50" y1="38.80" x2="27.79" y2="40.50"/><line x1="30.50" y1="38.80" x2="33.21" y2="40.50"/><line x1="25.48" y1="35.90" x2="22.65" y2="34.40"/><line x1="25.48" y1="35.90" x2="25.37" y2="39.10"/><line x1="25.48" y1="30.10" x2="25.37" y2="26.90"/><line x1="25.48" y1="30.10" x2="22.65" y2="31.60"/></g><circle cx="30.50" cy="33.00" r="2.25" fill="#04140a" stroke="none"/></g></g></g></svg>
